# xmcd CD database file
#
# Track frame offsets:
#	150
#	27237
#	54654
#	61138
#	80419
#	99452
#	120668
#	149237
#	165352
#	197206
#
# Disc length: 2821 seconds
#
# Revision: 0
# Processed by: cddbd v1.5.2PL0 Copyright (c) Steve Scherf et al.
# Submitted via: CDex 1.70beta2
#
DISCID=880b030a
DTITLE=Aki Takase Japanic - Thema Prima
DYEAR=2018
DGENRE=Jazz
TTITLE0=Traffic Jam
TTITLE1=Thema Prima
TTITLE2=A Goldfish in Space
TTITLE3=Mannen i tarnet
TTITLE4=Wüstenschiff
TTITLE5=Hello Welcome
TTITLE6=Monday in Budapest
TTITLE7=Les Constructeurs
TTITLE8=Berlin Express
TTITLE9=Madam Bum Bum
EXTD=YEAR: 2018
EXTT0=
EXTT1=
EXTT2=
EXTT3=
EXTT4=
EXTT5=
EXTT6=
EXTT7=
EXTT8=
EXTT9=
PLAYORDER=
